<?xml version="1.0" encoding="UTF-8"?>
<svg width="19px" height="14px" viewBox="0 0 19 14" version="1.1" xmlns="http://www.w3.org/2000/svg" xmlns:xlink="http://www.w3.org/1999/xlink">
    <title>noun_filter_2802517</title>
    <g id="Page-1" stroke="none" stroke-width="1" fill="none" fill-rule="evenodd">
        <g id="Browse_375" transform="translate(-61.000000, -190.000000)" fill="#1A1A1A" fill-rule="nonzero">
            <g id="noun_filter_2802517" transform="translate(70.500000, 197.000000) rotate(90.000000) translate(-70.500000, -197.000000) translate(64.000000, 188.000000)">
                <path d="M5.8190118,9.66875 C5.4380684,8.85209743 4.68701418,8.25010315 3.78340901,8.03714844 L3.78340901,0.7109375 C3.78340901,0.318297561 3.45260306,0 3.04453323,0 C2.6364634,0 2.30565745,0.318297561 2.30565745,0.7109375 L2.30565745,8.03359375 C2.12880249,8.07711449 1.95584707,8.13417128 1.7884444,8.20421875 C0.608485093,8.71836075 -0.104111336,9.89464698 0.0124101503,11.1359267 C0.128931637,12.3772065 1.04904894,13.4115979 2.30565745,13.7139844 L2.30565745,16.3515625 C2.30565745,16.7442024 2.6364634,17.0625 3.04453323,17.0625 C3.45260306,17.0625 3.78340901,16.7442024 3.78340901,16.3515625 L3.78340901,13.7175391 C4.75495956,13.4891512 5.54614824,12.8130562 5.89659376,11.9117578 C6.18414644,11.1842913 6.15619628,10.3762111 5.8190118,9.66875 Z M4.51489604,11.4105469 C4.26436471,12.0504119 3.5984092,12.4485946 2.89121572,12.3813645 C2.18402224,12.3141344 1.61192686,11.7982551 1.49637779,11.1235882 C1.38082872,10.4489213 1.75063769,9.78369252 2.39801692,9.50167969 C2.59956858,9.41231454 2.81891757,9.36622207 3.04083885,9.36659924 C3.65848383,9.36652246 4.21908061,9.71407372 4.47425787,10.2552734 C4.6504677,10.6186242 4.66776954,11.0348149 4.5222848,11.4105469 L4.51489604,11.4105469 Z" id="Shape"></path>
                <path d="M10.8121219,3.5546875 C10.7015487,3.51558594 10.5909755,3.48359375 10.4767166,3.45515625 L10.4767166,0.7109375 C10.4767166,0.318297561 10.1466812,0 9.73956192,0 C9.33244266,0 9.00240729,0.318297561 9.00240729,0.7109375 L9.00240729,3.46582031 C8.12921073,3.67841112 7.39841608,4.25294589 7.00650766,5.03495294 C6.61459924,5.81696 6.6017982,6.72618277 6.97154628,7.51816406 C7.3016674,8.22767026 7.91207504,8.78053475 8.66700193,9.05378906 C8.77757513,9.09289062 8.89183409,9.12488281 9.00240729,9.15332031 L9.00240729,16.3515625 C9.00240729,16.7442024 9.33244266,17.0625 9.73956192,17.0625 C10.1466812,17.0625 10.4767166,16.7442024 10.4767166,16.3515625 L10.4767166,9.14976563 C10.6539946,9.10898061 10.8267932,9.05184243 10.9927248,8.97914063 C12.1221726,8.49526922 12.8349641,7.39959553 12.7953007,6.20829527 C12.7556373,5.01699501 11.9714301,3.96768051 10.8121219,3.5546875 L10.8121219,3.5546875 Z M11.217557,6.84277344 C10.9939755,7.41468165 10.435112,7.80031598 9.80168572,7.81977134 C9.16825948,7.8392267 8.5850857,7.48866946 8.32422503,6.93164062 C8.10525882,6.46427454 8.14709775,5.92168851 8.43533624,5.4907006 C8.72357474,5.05971269 9.2188446,4.79918808 9.75061924,4.79882813 C9.93934932,4.79896716 10.1265508,4.831465 10.3034852,4.89480469 C10.6886692,5.03816586 10.9989484,5.32334287 11.1659561,5.6875 L11.1659561,5.6875 C11.3429565,6.05036934 11.3615462,6.46656863 11.217557,6.84277344 L11.217557,6.84277344 Z" id="Shape"></path>
            </g>
        </g>
    </g>
</svg>